<svg width="244" height="264" viewBox="0 0 244 264" fill="none" xmlns="http://www.w3.org/2000/svg">
<path d="M240.896 192.855C233.851 180.721 223.38 146.387 223.38 101.543C223.38 74.612 212.681 48.7842 193.638 29.7412C174.595 10.6982 148.768 0 121.837 0C94.9059 0 69.0781 10.6982 50.0351 29.7412C30.9921 48.7842 20.2939 74.612 20.2939 101.543C20.2939 146.399 9.80956 180.721 2.76502 192.855C0.966072 195.94 0.0123793 199.445 0.000119706 203.016C-0.0121399 206.587 0.917469 210.098 2.6952 213.195C4.47293 216.293 7.03591 218.866 10.1257 220.657C13.2154 222.447 16.7227 223.392 20.2939 223.394H72.0934C74.4362 234.858 80.6665 245.161 89.7306 252.56C98.7946 259.959 110.136 264 121.837 264C133.537 264 144.879 259.959 153.943 252.56C163.007 245.161 169.237 234.858 171.58 223.394H223.38C226.95 223.389 230.455 222.444 233.543 220.652C236.631 218.861 239.192 216.287 240.969 213.19C242.745 210.093 243.673 206.583 243.661 203.013C243.648 199.443 242.694 195.939 240.896 192.855ZM121.837 243.703C115.539 243.701 109.396 241.747 104.255 238.11C99.1129 234.473 95.2248 229.332 93.1255 223.394H150.548C148.449 229.332 144.561 234.473 139.419 238.11C134.277 241.747 128.135 243.701 121.837 243.703ZM20.2939 203.086C30.0674 186.28 40.6024 147.339 40.6024 101.543C40.6024 79.9982 49.161 59.3359 64.3954 44.1015C79.6298 28.8672 100.292 20.3086 121.837 20.3086C143.381 20.3086 164.044 28.8672 179.278 44.1015C194.512 59.3359 203.071 79.9982 203.071 101.543C203.071 147.301 213.581 186.242 223.38 203.086H20.2939Z" fill="black"/>
</svg>
