<svg width="177" height="241" viewBox="0 0 177 241" fill="none" xmlns="http://www.w3.org/2000/svg">
<path d="M174.85 118.46L62.8499 238.46C61.663 239.727 60.0963 240.573 58.3863 240.871C56.6763 241.169 54.9157 240.903 53.3701 240.113C51.8246 239.323 50.5781 238.051 49.8186 236.49C49.0591 234.929 48.8279 233.164 49.1599 231.46L63.8199 158.13L6.18988 136.49C4.9522 136.027 3.84847 135.265 2.97731 134.271C2.10615 133.277 1.49468 132.084 1.19755 130.796C0.900408 129.508 0.926853 128.167 1.27451 126.892C1.62218 125.617 2.28023 124.449 3.18988 123.49L115.19 3.49001C116.377 2.22337 117.943 1.37712 119.653 1.07898C121.363 0.780837 123.124 1.04697 124.67 1.83722C126.215 2.62748 127.462 3.89897 128.221 5.45983C128.981 7.02069 129.212 8.78622 128.88 10.49L114.18 83.9L171.81 105.51C173.038 105.976 174.133 106.738 174.998 107.727C175.862 108.717 176.469 109.904 176.766 111.184C177.062 112.464 177.039 113.798 176.698 115.067C176.357 116.336 175.708 117.501 174.81 118.46H174.85Z" fill="#00A650"/>
</svg>
