<svg width="264" height="145" viewBox="0 0 264 145" fill="none" xmlns="http://www.w3.org/2000/svg">
<path d="M260.484 20.4956L140.49 140.49C139.375 141.605 138.052 142.49 136.595 143.094C135.138 143.698 133.577 144.009 132 144.009C130.423 144.009 128.862 143.698 127.405 143.094C125.948 142.49 124.625 141.605 123.51 140.49L3.51649 20.4956C1.26492 18.2441 -2.37242e-08 15.1903 0 12.0061C2.37242e-08 8.82186 1.26492 5.76806 3.51649 3.51649C5.76807 1.26491 8.82186 2.37242e-08 12.0061 0C15.1903 -2.37242e-08 18.2441 1.26491 20.4956 3.51649L132 115.036L243.504 3.51649C244.619 2.40162 245.943 1.51726 247.399 0.913902C248.856 0.310541 250.417 0 251.994 0C253.571 0 255.132 0.310541 256.588 0.913902C258.045 1.51726 259.369 2.40162 260.484 3.51649C261.598 4.63135 262.483 5.9549 263.086 7.41154C263.689 8.86818 264 10.4294 264 12.0061C264 13.5827 263.689 15.1439 263.086 16.6006C262.483 18.0572 261.598 19.3808 260.484 20.4956Z" fill="black"/>
</svg>
