<svg width="295" height="264" viewBox="0 0 295 264" fill="none" xmlns="http://www.w3.org/2000/svg">
<path d="M121.846 243.692C121.846 247.709 120.655 251.635 118.424 254.975C116.192 258.314 113.021 260.917 109.31 262.454C105.599 263.991 101.516 264.393 97.5766 263.61C93.6373 262.826 90.0188 260.892 87.1787 258.052C84.3387 255.212 82.4045 251.593 81.621 247.654C80.8374 243.715 81.2395 239.632 82.7766 235.921C84.3136 232.21 86.9165 229.039 90.2561 226.807C93.5957 224.576 97.522 223.385 101.538 223.385C106.924 223.385 112.09 225.524 115.898 229.333C119.707 233.141 121.846 238.306 121.846 243.692ZM233.538 223.385C229.522 223.385 225.596 224.576 222.256 226.807C218.916 229.039 216.314 232.21 214.777 235.921C213.24 239.632 212.837 243.715 213.621 247.654C214.405 251.593 216.339 255.212 219.179 258.052C222.019 260.892 225.637 262.826 229.577 263.61C233.516 264.393 237.599 263.991 241.31 262.454C245.021 260.917 248.192 258.314 250.424 254.975C252.655 251.635 253.846 247.709 253.846 243.692C253.846 238.306 251.707 233.141 247.898 229.333C244.09 225.524 238.924 223.385 233.538 223.385ZM294.017 63.9058L257.806 181.576C255.909 187.814 252.053 193.274 246.808 197.147C241.563 201.02 235.21 203.1 228.69 203.077H106.704C100.091 203.052 93.6641 200.886 88.3855 196.902C83.1069 192.919 79.2607 187.332 77.4231 180.98L31.5023 20.3077H10.1538C7.46088 20.3077 4.87821 19.2379 2.97399 17.3337C1.06978 15.4295 0 12.8468 0 10.1538C0 7.46088 1.06978 4.87821 2.97399 2.97399C4.87821 1.06978 7.46088 0 10.1538 0H31.5023C35.9117 0.0146273 40.1978 1.45693 43.7191 4.11101C47.2403 6.76509 49.8073 10.4882 51.0358 14.7231L61.3292 50.7692H284.308C285.897 50.7686 287.464 51.141 288.882 51.8563C290.301 52.5716 291.532 53.6099 292.477 54.8877C293.421 56.1655 294.053 57.6472 294.32 59.2134C294.588 60.7797 294.484 62.3869 294.017 63.9058ZM270.562 71.0769H67.1296L96.9438 175.408C97.5504 177.528 98.831 179.394 100.592 180.722C102.353 182.05 104.499 182.769 106.704 182.769H228.69C230.863 182.77 232.978 182.074 234.726 180.783C236.474 179.492 237.761 177.675 238.4 175.598L270.562 71.0769Z" fill="black"/>
</svg>
