<svg width="264" height="264" viewBox="0 0 264 264" fill="none" xmlns="http://www.w3.org/2000/svg">
<path d="M261.028 246.675L197.546 183.207C215.946 161.117 225.12 132.784 223.162 104.102C221.204 75.4195 208.263 48.5964 187.032 29.2124C165.801 9.82831 137.914 -0.624329 109.173 0.0288693C80.4312 0.682067 53.0479 12.3908 32.7194 32.7194C12.3908 53.0479 0.682067 80.4312 0.0288693 109.173C-0.624329 137.914 9.82831 165.801 29.2124 187.032C48.5964 208.263 75.4195 221.204 104.102 223.162C132.784 225.12 161.117 215.946 183.207 197.546L246.675 261.028C247.618 261.97 248.737 262.717 249.968 263.227C251.199 263.737 252.519 264 253.851 264C255.184 264 256.504 263.737 257.735 263.227C258.966 262.717 260.085 261.97 261.028 261.028C261.97 260.085 262.717 258.966 263.227 257.735C263.737 256.504 264 255.184 264 253.851C264 252.519 263.737 251.199 263.227 249.968C262.717 248.737 261.97 247.618 261.028 246.675ZM20.5659 111.852C20.5659 93.797 25.9197 76.1478 35.9503 61.136C45.9809 46.1241 60.2378 34.4238 76.9181 27.5146C93.5984 20.6054 111.953 18.7977 129.661 22.32C147.368 25.8422 163.634 34.5364 176.4 47.3029C189.167 60.0694 197.861 76.335 201.383 94.0426C204.906 111.75 203.098 130.105 196.189 146.785C189.279 163.465 177.579 177.722 162.567 187.753C147.555 197.783 129.906 203.137 111.852 203.137C87.6494 203.11 64.4461 193.484 47.3325 176.371C30.219 159.257 20.5928 136.054 20.5659 111.852Z" fill="black"/>
</svg>
