<svg width="208" height="264" viewBox="0 0 208 264" fill="none" xmlns="http://www.w3.org/2000/svg">
<path d="M103.715 56.572C94.3913 56.572 85.2766 59.3369 77.5239 64.5171C69.7712 69.6973 63.7287 77.06 60.1606 85.6744C56.5924 94.2887 55.6588 103.768 57.4778 112.913C59.2969 122.057 63.7868 130.458 70.38 137.051C76.9731 143.644 85.3732 148.134 94.5181 149.953C103.663 151.772 113.142 150.838 121.756 147.27C130.371 143.702 137.733 137.659 142.914 129.907C148.094 122.154 150.859 113.039 150.859 103.715C150.859 91.2121 145.892 79.221 137.051 70.38C128.21 61.5389 116.219 56.572 103.715 56.572ZM103.715 132.001C98.1209 132.001 92.6521 130.342 88.0005 127.234C83.3489 124.126 79.7234 119.709 77.5825 114.54C75.4416 109.371 74.8814 103.684 75.9728 98.197C77.0643 92.7101 79.7582 87.67 83.7141 83.7141C87.67 79.7582 92.7101 77.0643 98.197 75.9728C103.684 74.8814 109.371 75.4416 114.54 77.5825C119.709 79.7234 124.126 83.3489 127.234 88.0005C130.342 92.6521 132.001 98.1209 132.001 103.715C132.001 111.217 129.021 118.412 123.717 123.717C118.412 129.021 111.217 132.001 103.715 132.001ZM103.715 0C76.2179 0.031194 49.8556 10.9683 30.412 30.412C10.9683 49.8556 0.031194 76.2179 0 103.715C0 140.723 17.1012 179.946 49.5005 217.154C64.0586 233.967 80.4436 249.107 98.3528 262.294C99.9381 263.404 101.827 264 103.762 264C105.698 264 107.587 263.404 109.172 262.294C127.048 249.102 143.402 233.962 157.93 217.154C190.282 179.946 207.431 140.723 207.431 103.715C207.399 76.2179 196.462 49.8556 177.019 30.412C157.575 10.9683 131.213 0.031194 103.715 0ZM103.715 242.788C84.2333 227.467 18.8573 171.189 18.8573 103.715C18.8573 81.2096 27.7977 59.6256 43.7117 43.7117C59.6256 27.7977 81.2096 18.8573 103.715 18.8573C126.221 18.8573 147.805 27.7977 163.719 43.7117C179.633 59.6256 188.573 81.2096 188.573 103.715C188.573 171.166 123.197 227.467 103.715 242.788Z" fill="black"/>
</svg>
