<svg width="813" height="200" viewBox="0 0 813 200" fill="none" xmlns="http://www.w3.org/2000/svg">
<g clip-path="url(#clip0_835_2)">
<mask id="mask0_835_2" style="mask-type:luminance" maskUnits="userSpaceOnUse" x="-157" y="-275" width="1123" height="794">
<path d="M-156.587 -274.833H965.933V518.874H-156.587V-274.833Z" fill="white"/>
</mask>
<g mask="url(#mask0_835_2)">
<path d="M282.983 96.3155C282.983 45.3316 219.641 3.77288 141.499 3.77288C63.36 3.77288 0.0173035 45.3316 0.0173035 96.3155C0.0173035 97.6302 -3.05176e-05 101.27 -3.05176e-05 101.733C-3.05176e-05 155.818 55.3653 199.625 141.479 199.625C228.127 199.625 282.983 155.83 282.983 101.744V96.3155Z" fill="#002F6D"/>
<path d="M277.565 96.27C277.565 144.334 216.657 183.298 141.524 183.298C66.3882 183.298 5.48682 144.334 5.48682 96.27C5.48682 48.2006 66.3882 9.23532 141.524 9.23532C216.657 9.23532 277.565 48.2006 277.565 96.27Z" fill="#FFE900"/>
<path d="M96.3532 68.8116C96.2799 68.9489 94.9239 70.3529 95.8025 71.4809C97.9519 74.2236 104.58 75.7956 111.285 74.2929C115.279 73.3956 120.393 69.3236 125.353 65.3916C130.725 61.1223 136.057 56.8489 141.416 55.1489C147.089 53.3436 150.724 54.1169 153.125 54.8449C155.761 55.6303 158.857 57.3649 163.8 61.0729C173.108 68.0703 210.543 100.741 217.007 106.392C222.215 104.037 245.359 94.0729 276.817 87.1383C274.087 70.3676 263.881 55.0263 248.412 42.4623C226.853 51.5183 200.5 56.2436 174.731 43.6596C174.6 43.6049 160.652 37.0036 146.895 37.3289C126.452 37.8023 117.597 46.6516 108.22 56.0196L96.3532 68.8116Z" fill="white"/>
<path d="M215.485 109.943C215.048 109.552 171.472 71.4272 161.604 64.0072C155.891 59.7232 152.712 58.6298 149.376 58.2058C147.64 57.9805 145.239 58.3032 143.563 58.7618C138.971 60.0112 132.967 64.0258 127.636 68.2525C122.115 72.6485 116.913 76.7885 112.083 77.8698C105.916 79.2525 98.3813 77.6205 94.944 75.2965C93.548 74.3605 92.5693 73.2778 92.0973 72.1778C90.8293 69.2325 93.1733 66.8792 93.556 66.4845L105.58 53.4792C106.975 52.0845 108.384 50.6885 109.825 49.3138C105.944 49.8192 102.36 50.8098 98.8693 51.7818C94.5133 53.0072 90.3227 54.1712 86.084 54.1698C84.3133 54.1698 74.8293 52.6152 73.0307 52.1258C62.1493 49.1472 52.5987 46.2472 38.332 39.5885C21.2413 52.3125 9.808 68.2232 6.508 85.7485C8.96133 86.3992 12.9213 87.5765 14.5813 87.9458C53.264 96.5472 65.3147 105.408 67.4987 107.255C69.8653 104.626 73.2773 102.958 77.088 102.958C81.3707 102.963 85.2267 105.114 87.5693 108.436C89.7867 106.688 92.8413 105.192 96.7907 105.194C98.584 105.194 100.447 105.526 102.325 106.164C106.687 107.662 108.939 110.567 110.109 113.195C111.572 112.535 113.373 112.048 115.492 112.054C117.575 112.054 119.741 112.528 121.925 113.474C129.057 116.534 130.169 123.54 129.52 128.823C130.029 128.762 130.54 128.74 131.059 128.74C139.515 128.744 146.391 135.618 146.391 144.079C146.391 146.696 145.721 149.159 144.559 151.318C146.857 152.612 152.724 155.54 157.873 154.888C161.987 154.366 163.548 152.963 164.109 152.171C164.492 151.628 164.897 150.994 164.517 150.538L153.604 138.412C153.604 138.412 151.807 136.712 152.401 136.055C153.017 135.38 154.124 136.347 154.912 137.007C160.468 141.646 167.249 148.648 167.249 148.648C167.363 148.722 167.815 149.607 170.321 150.056C172.483 150.443 176.301 150.22 178.949 148.05C179.616 147.499 180.284 146.81 180.841 146.107C180.8 146.136 180.761 146.187 180.721 146.204C183.512 142.631 180.411 139.018 180.411 139.018L167.667 124.708C167.667 124.708 165.847 123.024 166.464 122.346C167.02 121.758 168.192 122.644 168.989 123.308C173.027 126.683 178.728 132.406 184.188 137.755C185.252 138.539 190.059 141.504 196.413 137.328C200.276 134.802 201.049 131.691 200.94 129.346C200.672 126.242 198.248 124.027 198.248 124.027L180.841 106.528C180.841 106.528 179.004 104.956 179.656 104.162C180.183 103.495 181.381 104.458 182.161 105.114C187.708 109.752 202.72 123.514 202.72 123.514C202.929 123.666 208.117 127.358 214.527 123.278C216.819 121.812 218.283 119.603 218.407 117.039C218.627 112.586 215.485 109.943 215.485 109.943Z" fill="white"/>
<path d="M131.058 132.128C128.359 132.096 125.404 133.7 125.018 133.467C124.807 133.324 125.184 132.241 125.438 131.617C125.696 130.993 129.251 120.299 120.587 116.585C113.956 113.736 109.907 116.94 108.512 118.387C108.146 118.768 107.983 118.736 107.942 118.252C107.808 116.328 106.947 111.117 101.222 109.375C93.0456 106.867 87.7869 112.577 86.4523 114.636C85.8563 109.976 81.9136 106.357 77.0856 106.352C71.8416 106.347 67.5896 110.596 67.5829 115.84C67.5816 121.083 71.8309 125.333 77.0776 125.333C79.6243 125.341 81.9376 124.321 83.6403 122.685C83.6936 122.732 83.7149 122.823 83.6869 123.004C83.2883 125.352 82.5536 133.885 91.4869 137.357C95.0709 138.747 98.1176 137.715 100.643 135.943C101.399 135.411 101.519 135.633 101.412 136.344C101.088 138.54 101.498 143.236 108.084 145.905C113.096 147.94 116.062 145.855 118.004 144.06C118.85 143.287 119.082 143.415 119.124 144.607C119.363 150.96 124.639 156 131.044 156.004C137.643 156.008 142.99 150.672 142.996 144.079C143.002 137.479 137.655 132.201 131.058 132.128Z" fill="white"/>
<path d="M131.058 155.154C125.076 155.147 120.215 150.505 119.996 144.582C119.978 144.071 119.927 142.722 118.786 142.722C118.315 142.722 117.908 143.003 117.438 143.426C116.123 144.647 114.447 145.885 112.002 145.885C110.89 145.885 109.688 145.629 108.418 145.107C102.1 142.551 102.015 138.211 102.274 136.467C102.342 136.001 102.364 135.519 102.046 135.139L101.66 134.793H101.264C100.942 134.793 100.614 134.925 100.164 135.242C98.335 136.522 96.5856 137.146 94.803 137.146C93.8243 137.146 92.819 136.95 91.8083 136.563C83.495 133.325 84.1523 125.475 84.5576 123.113C84.619 122.635 84.499 122.263 84.195 122.017L83.607 121.533L83.0576 122.061C81.4376 123.623 79.3163 124.475 77.0883 124.475C72.327 124.471 68.451 120.599 68.4536 115.841C68.4576 111.073 72.3363 107.207 77.1016 107.213C81.4043 107.213 85.0696 110.45 85.6203 114.749L85.9136 117.067L87.187 115.107C87.331 114.875 90.819 109.599 97.2363 109.606C98.455 109.606 99.7163 109.802 100.984 110.194C106.098 111.755 106.964 116.393 107.099 118.323C107.19 119.451 107.991 119.502 108.147 119.502C108.588 119.502 108.915 119.225 109.144 118.979C110.11 117.973 112.212 116.299 115.503 116.299C117.006 116.302 118.608 116.658 120.263 117.371C128.391 120.858 124.704 131.186 124.66 131.295C123.96 133.007 123.935 133.762 124.591 134.199L124.912 134.349H125.146C125.514 134.349 125.97 134.191 126.722 133.937C127.828 133.554 129.499 132.977 131.059 132.981H131.063C137.183 133.05 142.159 138.029 142.155 144.078C142.147 150.19 137.17 155.154 131.058 155.154ZM217.168 105.381C203.748 93.6647 172.728 66.6981 164.328 60.3901C159.527 56.7821 156.254 54.8754 153.38 54.0181C152.087 53.6287 150.303 53.1847 148.003 53.1821C145.863 53.1821 143.57 53.5687 141.174 54.3314C135.746 56.0487 130.336 60.3487 125.104 64.506L124.835 64.7194C119.96 68.5927 114.923 72.6007 111.112 73.4514C109.45 73.826 107.739 74.0207 106.03 74.0207C101.763 74.014 97.927 72.7847 96.4883 70.9487C96.251 70.646 96.4043 70.154 96.959 69.4487L97.031 69.3541L108.838 56.6301C118.088 47.3821 126.823 38.6514 146.928 38.1874C147.263 38.1794 147.602 38.174 147.935 38.174C160.448 38.182 172.96 43.7847 174.363 44.434C186.1 50.1554 198.212 53.0647 210.391 53.0754C223.08 53.0794 236.172 49.938 249.94 43.598C248.403 42.3034 246.8 41.0474 245.155 39.8114C233.062 45.0554 221.539 47.7061 210.426 47.7007C199.071 47.6914 187.723 44.9647 176.71 39.5914C176.13 39.3141 162.314 32.8007 147.942 32.7927C147.566 32.7927 147.18 32.8007 146.806 32.8047C129.916 33.1994 120.402 39.1994 114.006 44.4527C107.783 44.602 102.415 46.1047 97.639 47.438C93.3776 48.622 89.6963 49.6514 86.1056 49.6474C84.6283 49.6474 81.9656 49.5127 81.7256 49.5047C77.5976 49.378 56.803 44.2767 40.2576 38.0154C38.5683 39.2101 36.943 40.4447 35.3603 41.7021C52.643 48.7887 73.6763 54.2687 80.3136 54.6994C82.159 54.8194 84.1283 55.0287 86.0976 55.0327C90.4896 55.0327 94.8683 53.7994 99.1136 52.6141C101.618 51.9087 104.384 51.1447 107.288 50.5874C106.514 51.3474 105.74 52.1207 104.966 52.902L92.9656 65.878C92.019 66.83 89.9736 69.3754 91.323 72.5087C91.8603 73.7727 92.951 74.9807 94.4749 76.01C97.3363 77.934 102.455 79.2354 107.21 79.2394C109.012 79.2394 110.719 79.0607 112.29 78.7074C117.318 77.578 122.592 73.378 128.18 68.9354C132.634 65.3967 138.96 60.9047 143.804 59.586C145.155 59.2167 146.815 58.99 148.154 58.99C148.552 58.9927 148.927 59.0047 149.28 59.0541C152.479 59.4607 155.574 60.55 161.098 64.6954C170.942 72.0927 214.523 110.213 214.947 110.59C214.98 110.615 217.755 113.013 217.562 116.997C217.459 119.217 216.224 121.191 214.082 122.562C212.222 123.738 210.302 124.341 208.36 124.341C205.447 124.334 203.443 122.969 203.314 122.877C203.154 122.746 188.223 109.055 182.731 104.458C181.854 103.733 181.006 103.081 180.143 103.081C179.684 103.077 179.278 103.273 179.003 103.618C178.139 104.682 179.107 106.157 180.247 107.126L197.691 124.657C197.712 124.678 199.86 126.694 200.098 129.382C200.234 132.289 198.847 134.717 195.958 136.614C193.899 137.966 191.814 138.655 189.775 138.655C187.098 138.655 185.218 137.434 184.803 137.146L182.299 134.681C177.727 130.181 173.006 125.53 169.551 122.645C168.708 121.945 167.807 121.299 166.948 121.299C166.528 121.299 166.144 121.457 165.851 121.765C165.455 122.203 165.183 122.991 166.164 124.297C166.567 124.834 167.043 125.279 167.043 125.279L179.774 139.57C179.879 139.698 182.396 142.689 180.058 145.673L179.611 146.241C179.23 146.665 178.818 147.051 178.427 147.379C176.258 149.163 173.356 149.355 172.21 149.355C171.592 149.355 171 149.301 170.484 149.21C169.231 148.983 168.387 148.633 167.98 148.149L167.824 147.993C167.13 147.27 160.714 140.723 155.406 136.293C154.706 135.706 153.835 134.965 152.931 134.965C152.487 134.965 152.087 135.139 151.783 135.479C150.731 136.631 152.311 138.349 152.979 138.981L163.835 150.95C163.822 151.059 163.683 151.307 163.42 151.686C163.031 152.219 161.715 153.535 157.776 154.035C157.307 154.093 156.819 154.119 156.339 154.119C152.278 154.119 147.948 152.149 145.715 150.963C146.73 148.817 147.256 146.457 147.256 144.082C147.263 135.147 140.007 127.883 131.072 127.875C130.883 127.875 130.68 127.883 130.487 127.89C130.78 123.81 130.204 116.087 122.276 112.685C119.996 111.697 117.719 111.195 115.507 111.195C113.776 111.195 112.112 111.491 110.542 112.093C108.902 108.902 106.174 106.577 102.615 105.362C100.651 104.682 98.695 104.339 96.8056 104.339C93.507 104.339 90.467 105.307 87.755 107.237C85.159 104.01 81.2336 102.094 77.1016 102.094C73.4883 102.094 70.0096 103.542 67.4336 106.093C64.0563 103.514 50.6523 94.9994 14.7816 86.8554C13.0443 86.462 9.05763 85.318 6.61363 84.6034C6.20829 86.5447 5.90029 88.5087 5.69629 90.49C5.69629 90.49 12.3136 92.074 13.615 92.3647C50.259 100.505 62.367 108.969 64.415 110.567C63.723 112.231 63.3616 114.029 63.3576 115.841C63.3536 123.406 69.5096 129.574 77.0856 129.582C77.9363 129.582 78.7776 129.51 79.607 129.355C80.747 134.925 84.391 139.149 89.9643 141.314C91.5896 141.942 93.239 142.262 94.855 142.262C95.899 142.266 96.9536 142.134 97.9816 141.873C99.0096 144.487 101.328 147.743 106.503 149.845C108.315 150.577 110.131 150.959 111.896 150.959C113.336 150.959 114.747 150.709 116.09 150.209C118.571 156.251 124.471 160.257 131.054 160.257C135.414 160.261 139.602 158.485 142.656 155.341C145.268 156.795 150.791 159.421 156.363 159.433C157.086 159.433 157.764 159.382 158.439 159.297C163.976 158.597 166.555 156.435 167.738 154.75C167.95 154.458 168.143 154.145 168.307 153.823C169.616 154.195 171.054 154.502 172.699 154.506C175.723 154.506 178.624 153.477 181.56 151.341C184.442 149.257 186.491 146.278 186.784 143.737C186.79 143.703 186.799 143.663 186.803 143.626C187.771 143.827 188.768 143.933 189.766 143.933C192.878 143.933 195.938 142.959 198.864 141.045C204.51 137.343 205.491 132.507 205.398 129.346C206.387 129.553 207.396 129.659 208.398 129.659C211.323 129.659 214.192 128.777 216.928 127.033C220.426 124.797 222.531 121.373 222.848 117.386C223.071 114.677 222.398 111.945 220.971 109.597C230.427 105.522 252.044 97.6354 277.498 91.9007C277.344 89.9274 277.06 87.978 276.708 86.038C245.908 92.8727 222.927 102.818 217.168 105.381Z" fill="#002F6D"/>
<path d="M339.926 45.2946V86.9119H323.303V48.6172C323.303 30.0226 332.662 20.7892 351.255 20.7892C359.627 20.7892 366.03 22.6359 370.709 26.3292C375.39 22.7586 381.79 21.0359 390.166 21.0359C408.761 21.0359 417.995 30.2692 417.871 48.8626V87.1599H409.374C403.957 86.7879 401.249 84.2039 401.249 79.0319V45.5399C400.879 38.7666 397.183 35.4412 389.919 35.4412C382.655 35.4412 378.958 38.7666 378.838 45.5399V86.9119H362.338V45.2946C361.966 38.5199 358.275 35.1959 351.01 35.1959C343.743 35.1959 340.049 38.5199 339.926 45.2946Z" fill="#002F6D"/>
<path d="M498.167 53.5499C498.659 32.4926 509.063 20.7886 530.859 20.7886H535.803V37.7806L528.192 37.9446C519.079 37.9446 514.79 43.8206 514.79 53.3019V87.1646H498.167V53.5499Z" fill="#002F6D"/>
<path d="M649.336 59.6319V54.3012C645.519 55.9026 641.086 56.5559 636.283 57.5399C629.758 58.7719 626.431 61.8506 626.431 66.6519C626.802 71.8239 629.511 74.2852 634.682 74.2852C643.795 74.2852 649.336 68.8666 649.336 59.6319ZM627.496 41.2172L612.247 41.1999C612.83 28.6159 619.163 20.2292 637.76 20.2292C655.739 20.2292 664.852 26.1399 665.222 38.2079V60.3719C665.222 78.3492 654.386 86.3532 636.775 87.5839C621.139 88.8146 610.302 81.5506 610.302 67.1439C610.671 51.5039 622 47.3199 638.5 45.7186C645.519 44.8572 649.09 42.7626 649.09 39.1932C648.72 35.4986 645.272 33.7399 638.5 33.6519C630.83 33.5506 628.359 38.1386 627.496 41.2172Z" fill="#002F6D"/>
<path d="M691.504 54.1586C691.382 67.336 695.812 73.984 705.172 73.984C714.53 73.984 719.207 67.336 719.207 54.1586C718.839 41.5986 714.284 35.4413 705.418 35.4413C696.554 35.4413 691.994 41.5986 691.504 54.1586ZM735.462 -3.31372e-05V58.716C735.462 78.2933 725.242 88.0213 704.924 87.8986C684.731 87.5266 674.632 76.5693 674.632 54.8986C674.632 32.7346 683.252 21.4053 700.614 20.7893C708.743 20.7893 715.024 24.1146 719.207 30.8866V10.1253L719.247 8.29196C724.663 0.209298 735.462 -3.31372e-05 735.462 -3.31372e-05Z" fill="#002F6D"/>
<path d="M336.089 100H340.376V186.267H324V110.54C324 108.083 329.089 100 336.089 100Z" fill="#002F6D"/>
<path d="M420.511 172.349C411.151 172.349 406.718 165.703 406.842 152.527C407.335 139.965 411.891 133.809 420.758 133.809C429.623 133.809 434.178 139.965 434.548 152.527C434.548 165.703 429.87 172.349 420.511 172.349ZM425.311 119.156C417.187 119.156 411.028 122.481 406.842 129.253L406.839 100H404.984C396.818 100.099 392.527 104.459 390.466 108.021V107.459V157.083C390.466 176.659 400.686 186.388 421.003 186.267C441.199 185.893 451.294 174.936 451.294 153.265C451.294 131.101 442.674 119.771 425.311 119.156Z" fill="#002F6D"/>
<path d="M466.775 37.156C464.688 34.8667 461.515 33.7187 457.259 33.7187C454.476 33.7187 452.166 34.1907 450.324 35.1307C448.483 36.0734 447.01 37.2387 445.906 38.6294C444.8 40.0214 444.022 41.4947 443.572 43.0494C443.122 44.604 442.856 45.9947 442.775 47.2227H471.132C470.314 42.804 468.86 39.4494 466.775 37.156ZM447.072 70.5467C449.69 73.0854 453.455 74.3534 458.364 74.3534C461.883 74.3534 464.914 73.4747 467.45 71.7134C469.984 69.9547 471.54 68.092 472.114 66.128H487.46C485.004 73.7387 481.24 79.1827 476.166 82.4547C471.09 85.7294 464.952 87.3654 457.751 87.3654C452.759 87.3654 448.256 86.568 444.247 84.972C440.236 83.376 436.84 81.104 434.059 78.1587C431.275 75.212 429.127 71.6947 427.614 67.6C426.098 63.5107 425.343 59.008 425.343 54.0974C425.343 49.352 426.119 44.9334 427.675 40.8387C429.228 36.748 431.439 33.2094 434.303 30.22C437.168 27.2334 440.583 24.88 444.555 23.1614C448.523 21.4427 452.92 20.584 457.751 20.584C463.152 20.584 467.858 21.628 471.868 23.7134C475.878 25.8 479.174 28.6054 481.751 32.1227C484.33 35.6427 486.19 39.6534 487.338 44.1547C488.482 48.656 488.891 53.3614 488.564 58.2707H442.775C443.02 63.9174 444.451 68.012 447.072 70.5467Z" fill="#002F6D"/>
<path d="M572.667 33.5142C569.856 33.5142 567.499 34.1555 565.598 35.4355C563.696 36.7195 562.146 38.3715 560.95 40.3968C559.75 42.4235 558.903 44.6542 558.407 47.0928C557.911 49.5315 557.663 51.9502 557.663 54.3462C557.663 56.6622 557.911 59.0168 558.407 61.4142C558.903 63.8128 559.708 65.9835 560.824 67.9248C561.942 69.8675 563.448 71.4582 565.351 72.6982C567.251 73.9382 569.567 74.5582 572.295 74.5582C576.511 74.5582 579.754 73.3795 582.028 71.0248C584.302 68.6688 585.727 65.5062 586.306 61.5382H603.295C602.136 70.0542 598.831 76.5421 593.375 81.0061C587.918 85.4701 580.932 87.7021 572.418 87.7021C567.624 87.7021 563.222 86.8968 559.212 85.2848C555.202 83.6728 551.792 81.4208 548.983 78.5261C546.171 75.6341 543.98 72.1822 542.411 68.1728C540.84 64.1635 540.055 59.7622 540.055 54.9662C540.055 50.0062 540.778 45.3995 542.226 41.1408C543.671 36.8835 545.799 33.2048 548.611 30.1048C551.42 27.0048 554.851 24.5862 558.903 22.8502C562.952 21.1142 567.583 20.2462 572.791 20.2462C576.592 20.2462 580.25 20.7422 583.764 21.7342C587.278 22.7262 590.418 24.2355 593.19 26.2608C595.958 28.2875 598.211 30.8075 599.947 33.8235C601.683 36.8435 602.675 40.4182 602.922 44.5502H585.687C584.528 37.1942 580.188 33.5142 572.667 33.5142Z" fill="#002F6D"/>
<path d="M764.062 61.5994C764.558 64.0394 765.404 66.23 766.604 68.1714C767.802 70.1154 769.394 71.6647 771.378 72.822C773.363 73.9807 775.842 74.558 778.818 74.558C781.795 74.558 784.294 73.9807 786.319 72.822C788.344 71.6647 789.956 70.1154 791.155 68.1714C792.354 66.23 793.202 64.0394 793.699 61.5994C794.195 59.162 794.442 56.6607 794.442 54.098C794.442 51.5367 794.195 49.014 793.699 46.534C793.202 44.054 792.354 41.8647 791.155 39.9607C789.956 38.0607 788.344 36.5114 786.319 35.3114C784.294 34.114 781.795 33.514 778.818 33.514C775.842 33.514 773.363 34.114 771.378 35.3114C769.394 36.5114 767.802 38.0607 766.604 39.9607C765.404 41.8647 764.558 44.054 764.062 46.534C763.566 49.014 763.318 51.5367 763.318 54.098C763.318 56.6607 763.566 59.162 764.062 61.5994ZM748.066 40.1474C749.636 35.974 751.867 32.4194 754.762 29.4834C757.654 26.55 761.127 24.2754 765.178 22.6634C769.227 21.0514 773.774 20.246 778.818 20.246C783.86 20.246 788.427 21.0514 792.52 22.6634C796.612 24.2754 800.103 26.55 802.998 29.4834C805.891 32.4194 808.123 35.974 809.695 40.1474C811.263 44.322 812.05 48.9727 812.05 54.098C812.05 59.2247 811.263 63.8527 809.695 67.986C808.123 72.1207 805.891 75.654 802.998 78.5874C800.103 81.5234 796.612 83.7767 792.52 85.346C788.427 86.9154 783.86 87.702 778.818 87.702C773.774 87.702 769.227 86.9154 765.178 85.346C761.127 83.7767 757.654 81.5234 754.762 78.5874C751.867 75.654 749.636 72.1207 748.066 67.986C746.495 63.8527 745.71 59.2247 745.71 54.098C745.71 48.9727 746.495 44.322 748.066 40.1474Z" fill="#002F6D"/>
<path d="M460.927 152.467C461.419 131.409 471.823 119.707 493.619 119.707H498.563V136.697L490.952 136.863C481.839 136.863 477.549 142.737 477.549 152.219V186.081H460.927V152.467Z" fill="#002F6D"/>
<path d="M544.178 136.076C542.091 133.785 538.918 132.639 534.662 132.639C531.879 132.639 529.569 133.109 527.727 134.049C525.886 134.993 524.413 136.159 523.309 137.548C522.203 138.94 521.425 140.415 520.975 141.969C520.525 143.524 520.259 144.915 520.178 146.141H548.535C547.717 141.723 546.263 138.368 544.178 136.076ZM524.475 169.467C527.093 172.004 530.858 173.272 535.767 173.272C539.286 173.272 542.317 172.393 544.853 170.633C547.387 168.875 548.943 167.011 549.517 165.048H564.863C562.407 172.659 558.643 178.103 553.569 181.375C548.493 184.649 542.355 186.284 535.154 186.284C530.162 186.284 525.659 185.488 521.65 183.891C517.639 182.295 514.243 180.024 511.462 177.079C508.678 174.131 506.53 170.613 505.017 166.52C503.501 162.431 502.746 157.928 502.746 153.016C502.746 148.271 503.522 143.852 505.078 139.759C506.631 135.667 508.842 132.128 511.706 129.14C514.571 126.153 517.986 123.8 521.958 122.081C525.926 120.363 530.323 119.503 535.154 119.503C540.555 119.503 545.261 120.548 549.271 122.633C553.281 124.719 556.577 127.524 559.154 131.043C561.733 134.563 563.593 138.573 564.741 143.073C565.885 147.575 566.294 152.28 565.967 157.191H520.178C520.423 162.836 521.854 166.931 524.475 169.467Z" fill="#002F6D"/>
<path d="M374.325 114.917H357.945V100H374.325V114.917Z" fill="#002F6D"/>
<path d="M374.325 186.267H357.945V122.416H374.325V186.267Z" fill="#002F6D"/>
</g>
</g>
<defs>
<clipPath id="clip0_835_2">
<rect width="812.049" height="199.625" fill="white"/>
</clipPath>
</defs>
</svg>
