<svg width="264" height="264" viewBox="0 0 264 264" fill="none" xmlns="http://www.w3.org/2000/svg">
<path d="M132 0C105.893 0 80.3721 7.74166 58.6648 22.246C36.9575 36.7503 20.0387 57.3659 10.048 81.4858C0.0571935 105.606 -2.55685 132.146 2.5364 157.752C7.62965 183.357 20.2014 206.878 38.662 225.338C57.1225 243.799 80.6426 256.37 106.248 261.464C131.854 266.557 158.394 263.943 182.514 253.952C206.634 243.961 227.25 227.042 241.754 205.335C256.258 183.628 264 158.107 264 132C263.963 97.0027 250.044 63.4495 225.297 38.7027C200.55 13.9559 166.997 0.0369577 132 0ZM63.5631 220.211C70.9086 208.723 81.0278 199.269 92.988 192.721C104.948 186.172 118.364 182.739 132 182.739C145.636 182.739 159.052 186.172 171.012 192.721C182.972 199.269 193.091 208.723 200.437 220.211C180.87 235.429 156.788 243.691 132 243.691C107.212 243.691 83.1304 235.429 63.5631 220.211ZM91.3847 121.846C91.3847 113.813 93.7667 105.961 98.2296 99.2814C102.692 92.6023 109.036 87.3965 116.457 84.3224C123.879 81.2483 132.045 80.444 139.924 82.0112C147.802 83.5783 155.039 87.4466 160.719 93.1267C166.4 98.8069 170.268 106.044 171.835 113.922C173.402 121.801 172.598 129.967 169.524 137.389C166.45 144.81 161.244 151.154 154.565 155.617C147.886 160.079 140.033 162.462 132 162.462C121.228 162.462 110.897 158.182 103.281 150.566C95.6638 142.949 91.3847 132.618 91.3847 121.846ZM215.465 206.136C204.14 189.726 188.217 177.03 169.696 169.645C179.645 161.81 186.904 151.069 190.465 138.916C194.026 126.763 193.711 113.803 189.565 101.837C185.418 89.8717 177.646 79.4955 167.33 72.1518C157.013 64.8081 144.664 60.8619 132 60.8619C119.336 60.8619 106.987 64.8081 96.6705 72.1518C86.3536 79.4955 78.5816 89.8717 74.4352 101.837C70.2888 113.803 69.9742 126.763 73.5351 138.916C77.096 151.069 84.3555 161.81 94.3039 169.645C75.7835 177.03 59.8599 189.726 48.5354 206.136C34.2257 190.044 24.8728 170.159 21.6029 148.874C18.3331 127.59 21.2856 105.814 30.1052 86.1693C38.9247 66.5242 53.235 49.8475 71.3131 38.1472C89.3911 26.4469 110.466 20.222 132 20.222C153.534 20.222 174.609 26.4469 192.687 38.1472C210.765 49.8475 225.075 66.5242 233.895 86.1693C242.714 105.814 245.667 127.59 242.397 148.874C239.127 170.159 229.774 190.044 215.465 206.136Z" fill="black"/>
</svg>
